<?xml version="1.0" standalone="no"?>
<!DOCTYPE svg PUBLIC "-//W3C//DTD SVG 20010904//EN"
 "http://www.w3.org/TR/2001/REC-SVG-20010904/DTD/svg10.dtd">
<svg version="1.0" xmlns="http://www.w3.org/2000/svg"
 width="210.000000pt" height="98.000000pt" viewBox="0 0 210.000000 98.000000"
 preserveAspectRatio="xMidYMid meet">
<metadata>
Created by potrace 1.16, written by Peter Selinger 2001-2019
</metadata>
<g transform="translate(0.000000,98.000000) scale(0.100000,-0.100000)"
fill="#000000" stroke="none">
<path d="M0 490 l0 -490 1050 0 1050 0 0 490 0 490 -1050 0 -1050 0 0 -490z
m355 408 l0 -33 223 -3 222 -2 0 -40 c0 -29 -4 -40 -15 -40 -11 0 -15 -12 -15
-45 0 -38 -3 -45 -20 -45 -19 0 -20 -7 -20 -110 0 -103 1 -110 20 -110 17 0
20 -7 20 -50 0 -43 -3 -50 -20 -50 -14 0 -20 -7 -20 -24 0 -13 -7 -26 -15 -30
-18 -6 -20 -32 -4 -42 7 -4 19 3 28 15 19 25 31 20 24 -9 -9 -36 -74 -38 -88
-3 -3 10 3 29 16 47 20 27 21 30 5 41 -22 16 -23 105 -1 105 12 0 15 19 15
110 0 103 -1 110 -20 110 -17 0 -20 7 -20 45 l0 46 -157 -3 -158 -3 -2 -272
-1 -273 176 0 c98 -1 475 0 840 0 l662 1 0 -31 0 -30 -990 0 -990 0 0 30 0 30
60 0 60 0 0 275 0 275 -50 0 -50 0 0 40 0 40 50 0 50 0 0 35 0 35 93 0 92 0 0
-32z m739 -152 c72 -30 104 -134 59 -194 l-21 -28 29 -32 c54 -61 32 -169 -43
-208 -25 -14 -65 -19 -165 -22 l-133 -4 0 251 0 251 120 0 c80 0 132 -5 154
-14z m286 -76 l0 -50 35 0 35 0 0 -50 0 -50 -35 0 -35 0 0 -74 c0 -77 5 -86
51 -86 16 0 19 -7 19 -50 l0 -50 -40 0 c-104 0 -140 46 -140 180 l0 80 -30 0
c-29 0 -30 1 -30 50 0 49 1 50 30 50 28 0 30 3 30 34 0 33 3 36 48 49 26 8 50
15 55 16 4 1 7 -21 7 -49z m568 -55 c40 -17 82 -52 82 -69 0 -6 -17 -21 -39
-33 l-38 -22 -40 20 c-46 23 -80 15 -107 -23 -54 -76 42 -167 115 -109 24 19
25 19 67 -6 23 -14 42 -29 42 -33 0 -4 -16 -22 -35 -39 -111 -97 -283 -35
-309 111 -14 77 37 172 108 203 42 18 109 18 154 0z m-328 -176 l0 -180 -52 3
-53 3 -3 178 -2 177 55 0 55 0 0 -181z"/>
<path d="M352 823 c3 -16 23 -18 216 -21 207 -2 212 -2 212 18 0 19 -6 20
-216 20 -200 0 -215 -1 -212 -17z"/>
<path d="M113 212 c-38 -2 -53 -7 -53 -18 0 -12 128 -14 978 -12 796 3 977 5
977 16 0 11 -171 13 -925 15 -509 1 -949 1 -977 -1z"/>
</g>
</svg>
